<svg width="26" height="26" viewBox="0 0 26 26" fill="none" xmlns="http://www.w3.org/2000/svg">
<path d="M23.687 4H21.25V5.692H23.5V24.308H2.49997V5.692H4.74997V4H2.31197C1.93571 4.03141 1.587 4.20984 1.34141 4.49661C1.09581 4.78338 0.973138 5.15539 0.999969 5.532V24.468C0.973138 24.8446 1.09581 25.2166 1.34141 25.5034C1.587 25.7902 1.93571 25.9686 2.31197 26H23.687C24.0634 25.9688 24.4124 25.7905 24.6582 25.5037C24.904 25.2169 25.0268 24.8448 25 24.468V5.532C25.0268 5.15523 24.904 4.78308 24.6582 4.49628C24.4124 4.20948 24.0634 4.03116 23.687 4Z" fill="#80ABFE"/>
<path d="M5.3999 10.286H7.3999V12.286H5.3999V10.286Z" fill="#80ABFE"/>
<path d="M9.80005 10.286H11.8V12.286H9.80005V10.286Z" fill="#80ABFE"/>
<path d="M14.2 10.286H16.2V12.286H14.2V10.286Z" fill="#80ABFE"/>
<path d="M18.5999 10.286H20.5999V12.286H18.5999V10.286Z" fill="#80ABFE"/>
<path d="M5.3999 14.571H7.3999V16.571H5.3999V14.571Z" fill="#80ABFE"/>
<path d="M9.80005 14.571H11.8V16.571H9.80005V14.571Z" fill="#80ABFE"/>
<path d="M14.2 14.571H16.2V16.571H14.2V14.571Z" fill="#80ABFE"/>
<path d="M18.5999 14.571H20.5999V16.571H18.5999V14.571Z" fill="#80ABFE"/>
<path d="M5.3999 18.857H7.3999V20.857H5.3999V18.857Z" fill="#80ABFE"/>
<path d="M9.80005 18.857H11.8V20.857H9.80005V18.857Z" fill="#80ABFE"/>
<path d="M14.2 18.857H16.2V20.857H14.2V18.857Z" fill="#80ABFE"/>
<path d="M18.5999 18.857H20.5999V20.857H18.5999V18.857Z" fill="#80ABFE"/>
<path d="M7.13306 8C7.39827 8 7.65263 7.89464 7.84016 7.70711C8.0277 7.51957 8.13306 7.26522 8.13306 7V1C8.13306 0.734784 8.0277 0.48043 7.84016 0.292893C7.65263 0.105357 7.39827 0 7.13306 0C6.86784 0 6.61349 0.105357 6.42595 0.292893C6.23841 0.48043 6.13306 0.734784 6.13306 1V7C6.13306 7.26522 6.23841 7.51957 6.42595 7.70711C6.61349 7.89464 6.86784 8 7.13306 8Z" fill="#80ABFE"/>
<path d="M18.866 8C19.1312 8 19.3855 7.89464 19.5731 7.70711C19.7606 7.51957 19.866 7.26522 19.866 7V1C19.866 0.734784 19.7606 0.48043 19.5731 0.292893C19.3855 0.105357 19.1312 0 18.866 0C18.6008 0 18.3464 0.105357 18.1589 0.292893C17.9713 0.48043 17.866 0.734784 17.866 1V7C17.866 7.26522 17.9713 7.51957 18.1589 7.70711C18.3464 7.89464 18.6008 8 18.866 8Z" fill="#80ABFE"/>
<path d="M8 4H18V6H8V4Z" fill="#80ABFE"/>
</svg>
