<svg width="19" height="31" viewBox="0 0 19 31" fill="none" xmlns="http://www.w3.org/2000/svg">
<path fill-rule="evenodd" clip-rule="evenodd" d="M14.88 1.938H3.72003C3.21661 1.9485 2.73795 2.15841 2.38919 2.5216C2.04043 2.88479 1.85011 3.37157 1.86002 3.875V27.125C1.84984 27.6286 2.04005 28.1156 2.38883 28.479C2.73762 28.8425 3.21643 29.0525 3.72003 29.063H14.88C15.3834 29.0525 15.8621 28.8426 16.2109 28.4794C16.5596 28.1162 16.7499 27.6294 16.74 27.126V3.875C16.7499 3.37157 16.5596 2.88479 16.2109 2.5216C15.8621 2.15841 15.3834 1.9485 14.88 1.938ZM3.72003 0C2.71301 0.0210043 1.75554 0.440949 1.058 1.16755C0.360457 1.89416 -0.0200735 2.86797 2.51249e-05 3.875V27.125C-0.0200735 28.132 0.360457 29.1058 1.058 29.8324C1.75554 30.559 2.71301 30.979 3.72003 31H14.88C15.887 30.979 16.8445 30.559 17.5421 29.8324C18.2396 29.1058 18.6201 28.132 18.6 27.125V3.875C18.6201 2.86797 18.2396 1.89416 17.5421 1.16755C16.8445 0.440949 15.887 0.0210043 14.88 0L3.72003 0Z" fill="#80ABFE"/>
<path fill-rule="evenodd" clip-rule="evenodd" d="M9.30005 26.5C9.74506 26.5 10.1801 26.368 10.5501 26.1208C10.9201 25.8736 11.2085 25.5222 11.3788 25.111C11.5491 24.6999 11.5936 24.2475 11.5068 23.811C11.42 23.3746 11.2057 22.9737 10.891 22.659C10.5764 22.3443 10.1755 22.1301 9.739 22.0432C9.30255 21.9564 8.85014 22.001 8.43901 22.1713C8.02788 22.3416 7.67648 22.63 7.42924 23C7.18201 23.37 7.05005 23.805 7.05005 24.25C7.05005 24.8467 7.2871 25.419 7.70906 25.841C8.13102 26.2629 8.70331 26.5 9.30005 26.5Z" fill="#80ABFE"/>
</svg>
