<svg width="28" height="19" viewBox="0 0 28 19" fill="none" xmlns="http://www.w3.org/2000/svg">
<path d="M2.8 2.03474e-05H25.2C25.9312 -0.0112069 26.6368 0.268383 27.1619 0.777319C27.687 1.28626 27.9884 1.98287 28 2.71402V16.286C27.9884 17.0172 27.687 17.7138 27.1619 18.2227C26.6368 18.7317 25.9312 19.0112 25.2 19H2.8C2.06885 19.0112 1.36317 18.7317 0.838104 18.2227C0.313041 17.7138 0.0115797 17.0172 0 16.286V2.71402C0.0115797 1.98287 0.313041 1.28626 0.838104 0.777319C1.36317 0.268383 2.06885 -0.0112069 2.8 2.03474e-05ZM22.4 2.71402H5.6C5.58842 3.44517 5.28696 4.14179 4.7619 4.65072C4.23683 5.15966 3.53115 5.43925 2.8 5.42802V13.571C3.53115 13.5598 4.23683 13.8394 4.7619 14.3483C5.28696 14.8573 5.58842 15.5539 5.6 16.285H22.4C22.4116 15.5539 22.713 14.8573 23.2381 14.3483C23.7632 13.8394 24.4689 13.5598 25.2 13.571V5.42902C24.4689 5.44025 23.7632 5.16066 23.2381 4.65172C22.713 4.14279 22.4116 3.44617 22.4 2.71502V2.71402ZM8.4 5.42802H11.2V13.571H8.4V5.42802ZM16.8 10.857C17.0667 10.8488 17.325 10.7621 17.5428 10.6079C17.7605 10.4538 17.928 10.2388 18.0244 9.99003C18.1207 9.74122 18.1416 9.46954 18.0845 9.20891C18.0274 8.94829 17.8947 8.71026 17.7032 8.52456C17.5116 8.33886 17.2695 8.21371 17.0072 8.16474C16.745 8.11577 16.4741 8.14514 16.2284 8.2492C15.9827 8.35326 15.7731 8.52738 15.6258 8.74983C15.4785 8.97229 15.3999 9.23321 15.4 9.50002C15.4058 9.86559 15.5565 10.2139 15.8191 10.4684C16.0816 10.7228 16.4344 10.8626 16.8 10.857ZM16.8 13.571C16.0002 13.5461 15.2255 13.2861 14.5726 12.8236C13.9197 12.361 13.4174 11.7164 13.1286 10.9702C12.8398 10.224 12.7771 9.40927 12.9485 8.62768C13.1199 7.8461 13.5177 7.13229 14.0922 6.57539C14.6668 6.01849 15.3926 5.64315 16.1792 5.49624C16.9657 5.34933 17.7781 5.43735 18.515 5.74931C19.2518 6.06128 19.8804 6.58336 20.3224 7.2504C20.7643 7.91743 21 8.69986 21 9.50002C20.9826 10.5967 20.5304 11.6417 19.7428 12.4051C18.9552 13.1685 17.8967 13.5879 16.8 13.571Z" fill="#80ABFE"/>
</svg>
