<svg width="24" height="23" viewBox="0 0 24 23" fill="none" xmlns="http://www.w3.org/2000/svg">
<path d="M13.4909 23L11.9999 22.115L15.4289 15.923H20.5719C21.0338 15.9156 21.4738 15.7251 21.7952 15.3934C22.1166 15.0617 22.2931 14.6159 22.2859 14.154V3.538C22.2931 3.07615 22.1166 2.63034 21.7952 2.2986C21.4738 1.96687 21.0338 1.77637 20.5719 1.769H3.42892C3.20015 1.77252 2.97431 1.82107 2.76431 1.91188C2.5543 2.00269 2.36425 2.13398 2.20499 2.29825C2.04573 2.46252 1.92039 2.65656 1.83614 2.86928C1.75188 3.082 1.71035 3.30923 1.71392 3.538V14.154C1.7067 14.6159 1.88321 15.0617 2.20463 15.3934C2.52606 15.7251 2.96607 15.9156 3.42792 15.923H11.1419V17.692H3.42892C2.50513 17.6773 1.625 17.2963 0.981997 16.6329C0.338996 15.9694 -0.0142463 15.0778 -7.79446e-05 14.154V3.538C-0.0142463 2.6142 0.338996 1.72258 0.981997 1.05914C1.625 0.395699 2.50513 0.0147375 3.42892 0H20.5709C21.4947 0.0147375 22.3748 0.395699 23.0178 1.05914C23.6608 1.72258 24.0141 2.6142 23.9999 3.538V14.154C24.0141 15.0778 23.6608 15.9694 23.0178 16.6329C22.3748 17.2963 21.4947 17.6773 20.5709 17.692H16.4229L13.4909 23Z" fill="#80ABFE"/>
<path d="M6.75 5.18701H17.25V7.43701H6.75V5.18701Z" fill="#80ABFE"/>
<path d="M4.25 10.375H15.5V12.625H4.25V10.375Z" fill="#80ABFE"/>
</svg>
