<svg width="24" height="24" viewBox="0 0 24 24" fill="none" xmlns="http://www.w3.org/2000/svg">
<path d="M16.263 -4.18508e-05C14.2191 0.00234386 12.2599 0.816279 10.816 2.26282C9.37205 3.70936 8.56167 5.6701 8.563 7.71396C8.56233 8.4721 8.6749 9.22608 8.897 9.95096L0 18.857V24H5.136L14.03 15.094C15.1318 15.4325 16.2955 15.5194 17.4353 15.3482C18.5752 15.177 19.662 14.7521 20.6157 14.1049C21.5694 13.4576 22.3657 12.6045 22.9457 11.6085C23.5257 10.6124 23.8747 9.49887 23.967 8.34996C24.1391 6.51944 23.635 4.68926 22.55 3.20496C21.8334 2.20827 20.8889 1.39736 19.7953 0.83984C18.7016 0.282321 17.4905 -0.00564468 16.263 -4.18508e-05ZM16.263 13.714C15.6829 13.7117 15.1062 13.6252 14.551 13.457L13.566 13.157L12.839 13.885L10.117 16.611L8.91 15.428L7.704 16.637L8.885 17.819L7.523 19.182L6.342 18L5.136 19.208L6.317 20.39L4.425 22.286H1.712V19.569L10.1 11.143L10.827 10.415L10.579 9.60096C10.1479 8.24488 10.2026 6.78101 10.7336 5.46087C11.2647 4.14073 12.2389 3.04677 13.489 2.36696C14.3895 1.8972 15.3946 1.66404 16.4099 1.68938C17.4253 1.71472 18.4175 1.99773 19.2934 2.51183C20.1694 3.02593 20.9002 3.75425 21.4174 4.62837C21.9346 5.50248 22.2211 6.49372 22.25 7.50896C22.3096 8.72188 21.9829 9.92243 21.317 10.938C20.7762 11.7885 20.0295 12.4889 19.146 12.9741C18.2626 13.4594 17.2709 13.7138 16.263 13.714Z" fill="#80ABFE"/>
<path d="M19.1011 7.125C19.1011 7.57001 18.9691 8.00502 18.7219 8.37503C18.4746 8.74504 18.1232 9.03343 17.7121 9.20373C17.301 9.37403 16.8486 9.41858 16.4121 9.33177C15.9757 9.24495 15.5748 9.03066 15.2601 8.71599C14.9454 8.40132 14.7311 8.00041 14.6443 7.56395C14.5575 7.1275 14.602 6.6751 14.7723 6.26396C14.9426 5.85283 15.231 5.50143 15.601 5.25419C15.9711 5.00696 16.4061 4.875 16.8511 4.875C17.4478 4.875 18.0201 5.11205 18.4421 5.53401C18.864 5.95597 19.1011 6.52826 19.1011 7.125Z" fill="#80ABFE"/>
</svg>
