<svg width="25" height="21" viewBox="0 0 25 21" fill="none" xmlns="http://www.w3.org/2000/svg">
<path d="M21.15 14.959C18.239 14.189 18.415 14.498 18.415 13.071C18.415 12.149 19.069 12.487 19.484 10.732C19.646 10.041 19.784 10.502 20.124 9.39298C20.307 8.81398 19.997 8.76998 20.04 8.49298C20.083 8.21598 20.11 7.96898 20.181 7.40398C20.265 6.69798 19.365 4.85498 16.145 4.85498C12.925 4.85498 12.029 6.70498 12.113 7.40498C12.176 7.97398 12.213 8.21898 12.254 8.49398C12.295 8.76898 11.987 8.81298 12.17 9.39398C12.515 10.502 12.648 10.036 12.81 10.733C13.225 12.488 13.872 12.155 13.872 13.072C13.872 13.729 14.09 14.004 12.824 14.421C13.204 14.514 13.647 14.627 14.181 14.769C18.006 15.784 17.915 16.769 18.013 17.235C18.083 17.554 18.113 20.093 18.133 21.001H25C25 21.001 25 17.054 24.9 16.593C24.823 16.23 24.127 15.75 21.159 14.961L21.15 14.959Z" fill="#80ABFE"/>
<path d="M16.35 20.999C16.35 20.999 16.35 20.265 16.34 19.416C16.33 18.447 16.305 17.333 16.254 17C16.179 16.505 15.535 15.844 12.803 14.766C12.426 14.62 12.109 14.5 11.832 14.396C10.157 13.781 10.277 13.578 10.277 11.896C10.277 10.63 10.877 11.453 11.263 9.05298C11.414 8.10498 11.535 8.73498 11.852 7.21998C12.023 6.42798 11.736 6.36598 11.771 5.98598C11.806 5.60598 11.841 5.26798 11.902 4.49198C11.8991 4.01392 11.799 3.54145 11.6076 3.10337C11.4162 2.66528 11.1376 2.27076 10.7888 1.94384C10.44 1.61692 10.0283 1.36446 9.57873 1.20184C9.12917 1.03923 8.65121 0.969862 8.17398 0.997976C7.69693 0.970563 7.2193 1.04051 6.77014 1.20355C6.32099 1.3666 5.90971 1.61933 5.56134 1.94638C5.21296 2.27343 4.93478 2.66794 4.74372 3.10591C4.55266 3.54388 4.45272 4.01615 4.44998 4.49398C4.50998 5.26998 4.54998 5.60898 4.58598 5.98798C4.62198 6.36698 4.33398 6.42598 4.50498 7.22198C4.82698 8.73698 4.94798 8.10698 5.09898 9.05498C5.48098 11.455 6.07998 10.632 6.07998 11.898C6.07998 13.856 6.24598 13.71 3.55398 14.767C0.819977 15.844 0.175977 16.505 0.100977 17C0.000976704 17.63 0.000976562 21 0.000976562 21L16.35 20.999Z" fill="#80ABFE"/>
</svg>
