<svg width="28" height="28" viewBox="0 0 28 28" fill="none" xmlns="http://www.w3.org/2000/svg">
<path d="M17 3C17 3.59334 16.8241 4.17336 16.4944 4.66671C16.1648 5.16006 15.6962 5.54458 15.1481 5.77164C14.5999 5.9987 13.9967 6.05811 13.4147 5.94236C12.8328 5.8266 12.2982 5.54088 11.8787 5.12132C11.4591 4.70176 11.1734 4.16721 11.0576 3.58527C10.9419 3.00333 11.0013 2.40013 11.2284 1.85195C11.4554 1.30377 11.8399 0.835235 12.3333 0.505591C12.8266 0.175947 13.4067 0 14 0C14.7957 0 15.5587 0.316071 16.1213 0.87868C16.6839 1.44129 17 2.20435 17 3Z" fill="#80ABFE"/>
<path d="M14 22.889H17V15.389H20V9.38898C20 8.59333 19.6839 7.83027 19.1213 7.26766C18.5587 6.70505 17.7956 6.38898 17 6.38898H11C10.2044 6.38898 9.44129 6.70505 8.87868 7.26766C8.31607 7.83027 8 8.59333 8 9.38898V15.389H11V22.889H14Z" fill="#80ABFE"/>
<path d="M23.024 12.079L21.773 14.762C23.951 15.925 25.2 17.47 25.2 19C25.2 21.838 20.6 25 14 25C7.4 25 2.8 21.838 2.8 19C2.8 17.47 4.049 15.925 6.224 14.762L4.974 12.079C1.813 13.768 0 16.29 0 19C0 24.046 6.15 28 14 28C21.85 28 28 24.046 28 19C28 16.29 26.187 13.768 23.024 12.079Z" fill="#80ABFE"/>
</svg>
