<svg width="24" height="26" viewBox="0 0 24 26" fill="none" xmlns="http://www.w3.org/2000/svg">
<path d="M16 12.326H24V26H0V6.805H8V4.105L12 0L16 4.109V12.326ZM5.313 23.235V20.535H2.687V23.235H5.313ZM5.313 17.778V15.018H2.687V17.778H5.313ZM5.313 12.321V9.565H2.687V12.325L5.313 12.321ZM13.313 23.235V20.535H10.687V23.235H13.313ZM13.313 17.778V15.018H10.687V17.778H13.313ZM13.313 12.321V9.565H10.687V12.325L13.313 12.321ZM13.313 6.8V4.1H10.687V6.8H13.312H13.313ZM21.313 23.235V20.535H18.687V23.235H21.313ZM21.313 17.778V15.018H18.687V17.778H21.313Z" fill="#80ABFE"/>
</svg>
