<svg width="24" height="18" viewBox="0 0 24 18" fill="none" xmlns="http://www.w3.org/2000/svg">
<path d="M22.5 0.999985H1.5C1.12465 0.97919 0.756306 1.10766 0.475305 1.35738C0.194305 1.60709 0.0234477 1.95779 0 2.33299V15.667C0.0234477 16.0422 0.194305 16.3929 0.475305 16.6426C0.756306 16.8923 1.12465 17.0208 1.5 17H22.5C22.8753 17.0208 23.2437 16.8923 23.5247 16.6426C23.8057 16.3929 23.9766 16.0422 24 15.667V2.33299C23.9766 1.95779 23.8057 1.60709 23.5247 1.35738C23.2437 1.10766 22.8753 0.97919 22.5 0.999985ZM21.345 15.667H2.745L7.995 10.84L6.915 9.91298L1.5 14.893V3.34699L10.823 11.594C11.1185 11.8443 11.4932 11.9817 11.8805 11.9817C12.2678 11.9817 12.6425 11.8443 12.938 11.594L22.5 3.13999V14.807L16.98 9.89998L15.923 10.84L21.345 15.667ZM2.483 2.33299H21.283L11.883 10.646L2.483 2.33299Z" fill="#80ABFE"/>
</svg>
