<svg width="20" height="27" viewBox="0 0 20 27" fill="none" xmlns="http://www.w3.org/2000/svg">
<path d="M9.99993 24C10.6549 24 12.2189 22.22 13.6169 19.032C14.9654 16.0296 15.7721 12.8124 15.9999 9.529C16.0664 7.86853 15.4724 6.24934 14.3479 5.02575C13.2234 3.80215 11.6601 3.07378 9.99993 3C8.33977 3.07378 6.77642 3.80215 5.65196 5.02575C4.5275 6.24934 3.9335 7.86853 3.99993 9.529C4.2282 12.8114 5.03495 16.0275 6.38293 19.029C7.77993 22.219 9.34493 24 9.99993 24ZM9.99993 27C5.02893 27 0.99993 14.793 0.99993 9.529C0.931577 7.0724 1.84098 4.68909 3.52843 2.90245C5.21589 1.11581 7.54343 0.0719147 9.99993 0C12.4564 0.0719147 14.784 1.11581 16.4714 2.90245C18.1589 4.68909 19.0683 7.0724 18.9999 9.529C18.9999 14.792 14.9709 27 9.99993 27ZM9.99993 12C10.5933 12 11.1733 11.8241 11.6666 11.4944C12.16 11.1648 12.5445 10.6962 12.7716 10.1481C12.9986 9.59987 13.058 8.99667 12.9423 8.41473C12.8265 7.83279 12.5408 7.29824 12.1213 6.87868C11.7017 6.45912 11.1671 6.1734 10.5852 6.05764C10.0033 5.94189 9.40006 6.0013 8.85188 6.22836C8.3037 6.45542 7.83517 6.83994 7.50552 7.33329C7.17588 7.82664 6.99993 8.40666 6.99993 9C6.99993 9.79565 7.316 10.5587 7.87861 11.1213C8.44122 11.6839 9.20428 12 9.99993 12Z" fill="#80ABFE"/>
</svg>
