<svg width="24" height="24" viewBox="0 0 24 24" fill="none" xmlns="http://www.w3.org/2000/svg">
<path fill-rule="evenodd" clip-rule="evenodd" d="M20.757 1.483H2.965C2.57203 1.48326 2.19523 1.63949 1.91736 1.91736C1.63949 2.19523 1.48326 2.57203 1.483 2.965V20.757C1.483 21.1503 1.63924 21.5275 1.91736 21.8056C2.19548 22.0838 2.57268 22.24 2.966 22.24H20.757C21.1503 22.24 21.5275 22.0838 21.8056 21.8056C22.0838 21.5275 22.24 21.1503 22.24 20.757V2.965C22.2397 2.57186 22.0834 2.19491 21.8053 1.91701C21.5272 1.63911 21.1501 1.483 20.757 1.483ZM2.965 0C2.17863 0 1.42447 0.312383 0.868428 0.868428C0.312383 1.42447 0 2.17863 0 2.965L0 20.757C0 21.5434 0.312383 22.2975 0.868428 22.8536C1.42447 23.4096 2.17863 23.722 2.965 23.722H20.757C21.5434 23.722 22.2975 23.4096 22.8536 22.8536C23.4096 22.2975 23.722 21.5434 23.722 20.757V2.965C23.722 2.17863 23.4096 1.42447 22.8536 0.868428C22.2975 0.312383 21.5434 0 20.757 0H2.965Z" fill="#80ABFE"/>
<path fill-rule="evenodd" clip-rule="evenodd" d="M2.96509 22.239V20.757C2.96509 19.274 4.44809 14.827 11.8651 14.827C19.2821 14.827 20.7651 19.275 20.7651 20.757V22.24L2.96509 22.239ZM11.8651 13.339C12.7449 13.3382 13.6048 13.0765 14.3359 12.5869C15.067 12.0974 15.6365 11.402 15.9723 10.5888C16.3082 9.77554 16.3953 8.88097 16.2226 8.01821C16.05 7.15546 15.6253 6.36329 15.0024 5.7419C14.3795 5.12052 13.5863 4.69784 12.7231 4.52733C11.8599 4.35682 10.9655 4.44613 10.1531 4.78398C9.34072 5.12183 8.64676 5.69303 8.15903 6.42534C7.6713 7.15764 7.4117 8.01814 7.41309 8.898C7.41335 9.48229 7.52873 10.0608 7.75263 10.6005C7.97653 11.1402 8.30457 11.6305 8.718 12.0433C9.13143 12.4562 9.62216 12.7836 10.1621 13.0068C10.7021 13.2299 11.2808 13.3445 11.8651 13.344V13.339Z" fill="#80ABFE"/>
</svg>
